<svg xmlns="http://www.w3.org/2000/svg" width="20.129" height="28" viewBox="0 0 20.129 28"><defs><style>.a{fill:#f88d02;}</style></defs><g transform="translate(-71.962)"><path class="a" d="M86.506,19.623l1.28-2.078,2.311-.788.256-2.427,1.738-1.711-.827-2.3.827-2.3L90.353,6.313,90.1,3.886,87.786,3.1,86.506,1.02l-2.422.292L82.027,0,79.969,1.313l-2.422-.292L76.267,3.1l-2.311.788L73.7,6.313,71.962,8.025l.827,2.3-.827,2.3L73.7,14.331l.256,2.427,2.311.788,1.28,2.078,2.422-.292,2.057,1.313,2.057-1.313Zm-11.557-9.3A7.078,7.078,0,1,1,82.027,17.4,7.086,7.086,0,0,1,74.948,10.322Z"/><path class="a" d="M162.026,89.333a5.436,5.436,0,1,0,5.436,5.436A5.443,5.443,0,0,0,162.026,89.333Z" transform="translate(-80 -84.448)"/><path class="a" d="M87.663,344.834l-2.881.348-1.522-2.47-.517-.176-2.232,6.976,4.018-.221,3.144,2.512,1.85-5.782Z" transform="translate(-8.081 -323.803)"/><path class="a" d="M272.963,342.711l-1.522,2.47-2.881-.348L266.7,346.02l1.85,5.782,3.144-2.512,4.018.221-2.232-6.976Z" transform="translate(-184.089 -323.803)"/></g></svg>